# AST/ASF file generated using VICON BodyLanguage
# -----------------------------------------------
:version 1.10
:name VICON
:units
  mass 1.0
  length 0.45
  angle deg
:documentation
   .ast/.asf automatically generated from VICON data using
   VICON BodyBuilder and BodyLanguage model FoxedUp or BRILLIANT.MOD
:root
   order TX TY TZ RX RY RZ
   axis XYZ
   position 0 0 0  
   orientation 0 0 0 
:bonedata
  begin
     id 1 
     name lhipjoint
     direction 0.671379 -0.66392 0.329334 
     length 2.38647 
     axis 0 0 0  XYZ
  end
  begin
     id 2 
     name lfemur
     direction 0.34202 -0.939693 0  
     length 6.48179  
     axis 0 0 20  XYZ
    dof rx ry rz
    limits (-160.0 20.0)
           (-70.0 70.0)
           (-60.0 70.0)
  end
  begin
     id 3 
     name ltibia
     direction 0.34202 -0.939693 0   
     length 6.86524   
     axis 0 0 20   XYZ
    dof rx
    limits (-10.0 170.0)
  end
  begin
     id 4 
     name lfoot
     direction 0.204886 -0.562919 0.800715   
     length 1.73031   
     axis -90 7.62852e-016 20   XYZ
    dof rx rz
    limits (-45.0 90.0)
           (-70.0 20.0)
  end
  begin
     id 5 
     name ltoes
     direction 1.53548e-011 -4.21841e-011 1   
     length 0.828161   
     axis -90 7.62852e-016 20   XYZ
    dof rx
    limits (-90.0 20.0)
  end
  begin
     id 6 
     name rhipjoint
     direction -0.662732 -0.670855 0.332775   
     length 2.3618  
     axis 0 0 0  XYZ 
  end
  begin
     id 7 
     name rfemur
     direction -0.34202 -0.939693 0   
     length 6.3025   
     axis 0 0 -20   XYZ
    dof rx ry rz
    limits (-160.0 20.0)
           (-70.0 70.0)
           (-70.0 60.0)
  end
  begin
     id 8 
     name rtibia
     direction -0.34202 -0.939693 0   
     length 6.8732   
     axis 0 0 -20   XYZ
    dof rx
    limits (-10.0 170.0)
 end
 begin
     id 9 
     name rfoot
     direction -0.173856 -0.477665 0.861168   
     length 1.54784  
     axis -90 -7.62852e-016 -20   XYZ
    dof rx rz
    limits (-45.0 90.0)
           (-20.0 70.0)
  end
  begin
     id 10 
     name rtoes
     direction -1.53562e-011 -4.21802e-011 1   
     length 0.759618   
     axis -90 -7.62852e-016 -20   XYZ
    dof rx
    limits (-90.0 20.0)
  end
  begin
     id 11 
     name lowerback
     direction -0.0278357 0.999497 -0.0151789   
     length 1.97203   
     axis 0 0 0   XYZ
    dof rx ry rz
    limits (-20.0 45.0)
           (-30.0 30.0)
           (-30.0 30.0)
  end
  begin
     id 12 
     name upperback
     direction -0.00360622 0.997542 0.0699804   
     length 1.94709   
     axis 0 0 0   XYZ
    dof rx ry rz
    limits (-20.0 45.0)
           (-30.0 30.0)
           (-30.0 30.0)
  end
  begin
     id 13 
     name thorax
     direction 0.00907706 0.997048 0.0762461   
     length 1.95722   
     axis 0 0 0   XYZ
    dof rx ry rz
    limits (-20.0 45.0)
           (-30.0 30.0)
           (-30.0 30.0)
  end
  begin
     id 14 
     name lowerneck
     direction -0.0481835 0.99872 -0.0153927   
     length 1.63078   
     axis 0 0 0   XYZ
    dof rx ry rz
    limits (-20.0 45.0)
           (-30.0 30.0)
           (-30.0 30.0)
  end
  begin
     id 15 
     name upperneck
     direction 0.0859716 0.979226 -0.183644   
     length 1.62591   
     axis 0 0 0   XYZ
    dof rx ry rz
    limits (-20.0 45.0)
           (-30.0 30.0)
           (-30.0 30.0)
  end
  begin
     id 16
     name head
     direction 0.0324821 0.997629 -0.0606773  
     length 1.64811  
     axis 0 0 0   XYZ
    dof rx ry rz
    limits (-20.0 45.0)
           (-30.0 30.0)
           (-30.0 30.0)
  end
  begin
     id 17 
     name lclavicle
     direction 0.939609 0.311019 0.142835  
     length 3.70647  
     axis 0 0 0   XYZ
    dof ry rz
    limits (-20.0 10.0)
           (0.0 20.0)
  end
  begin
     id 18 
     name lhumerus
     direction 1 -4.48963e-011 -1.59838e-027   
     length 4.59207   
     axis 180 -30 -90   XYZ
    dof rx ry rz
    limits (-60.0 90.0)
           (-90.0 90.0)
           (-90.0 90.0)
  end
  begin
     id 19
     name lradius
     direction 1 -4.48957e-011 -1.3483e-026   
     length 2.98109   
     axis 180 -30 -90   XYZ
    dof rx
    limits (-10.0 170.0)
  end
  begin
     id 20
     name lwrist
     direction 1 -4.48954e-011 -3.11579e-026   
     length 1.49055   
     axis 2.00652e-014 90 90   XYZ
    dof ry
    limits (-180.0 0.0)
 end
  begin
     id 21 
     name lhand
     direction 1 -4.4911e-011 -6.23158e-026   
     length 0.480203   
     axis 3.97628e-014 90 90   XYZ
    dof rx rz
    limits (-90.0 90.0)
           (-45.0 45.0)
  end
  begin
     id 22 
     name lfingers
     direction 1 -4.48893e-011 -1.24632e-025   
     length 0.387152   
     axis 7.95256e-014 90 90   XYZ
    dof rx
    limits (0.0 90.0)
  end
  begin
     id 23
     name lthumb
     direction 0.707107 -6.35013e-011 0.707107   
     length 0.555875   
     axis -90 45 2.85299e-015   XYZ
    dof rx rz
    limits (-45.0 45.0)
           (-45.0 45.0)
  end
  begin
     id 24 
     name rclavicle
     direction -0.950396 0.30392 0.0661859   
     length 3.70894  
     axis 0 0 0   XYZ 
    dof ry rz
    limits (-10.0 20.0)
           (-20.0 0.0)
  end
  begin
     id 25 
     name rhumerus
     direction -1 -4.48957e-011 -2.96677e-027  
     length 4.76508   
     axis 180 30 90   XYZ
    dof rx ry rz
    limits (-90.0 60.0)
           (-90.0 90.0)
           (-90.0 90.0)
  end
  begin
     id 26 
     name rradius
     direction -1 -4.48974e-011 -1.44501e-026   
     length 2.78902   
     axis 180 30 90   XYZ
    dof rx
    limits (-10.0 170.0)
  end
  begin
     id 27 
     name rwrist
     direction -1 -4.48978e-011 -3.11579e-026   
     length 1.39451   
     axis 2.00652e-014 -90 -90   XYZ
    dof ry
    limits (-180.0 0.0)
  end
  begin
     id 28
     name rhand
     direction -1 -4.48956e-011 -6.23158e-026   
     length 0.721303   
     axis 3.97628e-014 -90 -90   XYZ
    dof rx rz
    limits (-90.0 90.0)
           (-45.0 45.0)
  end
  begin
     id 29
     name rfingers
     direction -1 -4.4899e-011 -1.24632e-025   
     length 0.581533   
     axis 7.95256e-014 -90 -90   XYZ
    dof rx
    limits (0.0 90.0)
  end
  begin
     id 30
     name rthumb
     direction -0.707107 -6.34911e-011 0.707107   
     length 0.834968   
     axis -90 -45 -2.85299e-015   XYZ
    dof rx rz
    limits (-45.0 45.0)
           (-45.0 45.0)
  end
:hierarchy
  begin
    root lhipjoint rhipjoint lowerback
    lhipjoint lfemur
    lfemur ltibia
    ltibia lfoot
    lfoot ltoes
    rhipjoint rfemur
    rfemur rtibia
    rtibia rfoot
    rfoot rtoes
    lowerback upperback
    upperback thorax
    thorax lowerneck lclavicle rclavicle
    lowerneck upperneck
    upperneck head
    lclavicle lhumerus
    lhumerus lradius
    lradius lwrist
    lwrist lhand lthumb
    lhand lfingers
    rclavicle rhumerus
    rhumerus rradius
    rradius rwrist
    rwrist rhand rthumb
    rhand rfingers
  end

#!OML:ASF I:\salsa\salsa 7_09\Patient 1\Session 1\dancerfemale.ASF
:FULLY-SPECIFIED
:DEGREES
1248
root 18.628 15.7693 -2.97548 -359.177 1054.93 361.25
lowerback 10.5277 -1.08301 -3.65621
upperback -3.72511 -1.98262 0.0522045
thorax -9.80006 -0.726629 2.48785
lowerneck 16.1968 -18.2861 -13.7884
upperneck -1.07881 -26.5057 14.6232
head 0.952625 -13.8144 6.57189
rclavicle -4.03284e-014 -7.55382e-015
rhumerus -35.086 -21.8414 -76.0308
rradius 90.7985
rwrist -6.9087
rhand 6.72673 -323.742
rfingers 7.12502
rthumb 32.0155 9.05535
lclavicle -4.03284e-014 -7.55382e-015
lhumerus -21.5365 -0.337336 66.4598
lradius 104.356
lwrist -19.5324
lhand -12.82 24.4583
lfingers 7.12502
lthumb 13.2667 -305.984
rfemur -25.5642 0.286706 9.55437
rtibia 45.5525
rfoot -17.1065 -13.2343
rtoes -20.848
lfemur -10.1149 -1.52941 -24.1822
ltibia 37.6587
lfoot -26.2111 -2.05704
ltoes -19.2385
1249
root 18.8291 15.7198 -3.05405 -360.392 1054.03 362.431
lowerback 10.9007 -0.417413 -3.32704
upperback -3.21975 -1.13279 -0.898621
thorax -9.5448 -0.381841 1.12812
lowerneck 15.922 -18.6571 -13.4083
upperneck -1.01749 -26.9151 14.813
head 1.04809 -14.0186 6.51658
rclavicle 6.03498e-015 1.05356e-014
rhumerus -37.4578 -22.0118 -75.5569
rradius 90.8319
rwrist -7.45663
rhand 6.36745 -323.413
rfingers 7.12502
rthumb 31.6734 9.31601
lclavicle 6.03498e-015 1.05356e-014
lhumerus -17.2753 -1.11681 70.5593
lradius 104.254
lwrist -19.5046
lhand -14.3436 24.0756
lfingers 7.12502
lthumb 11.7978 -306.277
rfemur -24.6325 -1.77616 8.91201
rtibia 48.6238
rfoot -17.7021 -14.52
rtoes -20.5399
lfemur -10.1071 -0.624484 -25.9674
ltibia 37.876
lfoot -26.1303 -2.06113
ltoes -17.3929
1250
root 19.0265 15.6716 -3.12671 -361.945 1052.96 363.614
lowerback 11.464 0.227796 -3.14702
upperback -2.54637 -0.316142 -1.64303
thorax -9.17667 -0.0345207 0.0801092
lowerneck 15.6405 -18.9183 -13.3008
upperneck -1.13004 -27.2072 14.9946
head 1.1089 -14.1611 6.50206
rclavicle 4.32232e-014 1.47101e-014
rhumerus -39.2993 -21.3096 -75.074
rradius 90.2222
rwrist -8.00544
rhand 6.04623 -322.564
rfingers 7.12502
rthumb 31.3674 10.1056
lclavicle 4.32232e-014 1.47101e-014
lhumerus -13.7896 -1.85605 74.9601
lradius 104.464
lwrist -19.5154
lhand -16.0827 24.0974
lfingers 7.12502
lthumb 10.1204 -306.166
rfemur -23.2644 -3.78429 8.17591
rtibia 51.6921
rfoot -17.9205 -15.3884
rtoes -18.3147
lfemur -9.69813 0.54715 -27.6542
ltibia 38.0356
lfoot -26.092 -2.08898
ltoes -15.8207
1251
root 19.2223 15.6342 -3.19142 -363.654 1051.64 364.616
lowerback 12.3951 0.780934 -2.61674
upperback -1.91677 0.416043 -2.35062
thorax -9.03818 0.26224 -1.12007
lowerneck 15.5196 -18.9454 -13.5244
upperneck -1.31452 -27.2587 15.3652
head 1.15989 -14.196 6.60921
rclavicle 2.44238e-014 1.43125e-014
rhumerus -41.0234 -19.2638 -75.2465
rradius 89.9574
rwrist -9.11204
rhand 5.18858 -323.302
rfingers 7.12502
rthumb 30.5498 9.21137
lclavicle 2.44238e-014 1.43125e-014
lhumerus -11.4033 -2.61118 79.2276
lradius 104.877
lwrist -19.6116
lhand -17.9037 23.7031
lfingers 7.12502
lthumb 8.36324 -306.482
rfemur -21.6771 -6.07302 7.58267
rtibia 54.7581
rfoot -17.6294 -15.6392
rtoes -19.1017
lfemur -8.92407 1.98705 -28.9901
ltibia 38.0607
lfoot -26.0441 -2.37375
ltoes -13.8304
1252
root 19.4144 15.5922 -3.24902 -365.413 1049.99 365.65
lowerback 13.4271 1.35084 -1.94914
upperback -1.35913 1.18937 -3.06488
thorax -8.99663 0.576296 -2.43508
lowerneck 15.3859 -18.8715 -14.0952
upperneck -1.38724 -27.2512 15.8865
head 1.30428 -14.2056 6.78306
rclavicle 6.50678e-014 3.57812e-015
rhumerus -42.5944 -18.833 -75.5309
rradius 89.4347
rwrist -8.54647
rhand 5.72002 -322.087
rfingers 7.12502
rthumb 31.0565 10.5224
lclavicle 6.50678e-014 3.57812e-015
lhumerus -9.93644 -3.51132 83.3218
lradius 105.334
lwrist -19.714
lhand -19.61 22.7947
lfingers 7.12502
lthumb 6.71628 -307.332
rfemur -20.1316 -8.09783 6.85771
rtibia 57.7389
rfoot -17.091 -15.5357
rtoes -18.1192
lfemur -8.05514 3.60119 -30.2081
ltibia 37.9367
lfoot -26.0445 -2.6677
ltoes -11.1948
1253
root 19.5896 15.5512 -3.30516 -367.118 1048.26 367.206
lowerback 14.1299 1.90098 -1.8555
upperback -0.942943 1.8484 -3.80939
thorax -8.90261 0.865596 -3.44494
lowerneck 15.0788 -18.7424 -14.9277
upperneck -1.20651 -27.2234 16.4008
head 1.58034 -14.1959 6.94625
rclavicle -1.47635e-013 4.01545e-014
rhumerus -43.7958 -17.8069 -76.2025
rradius 89.0307
rwrist -8.10144
rhand 6.17335 -321.421
rfingers 7.12502
rthumb 31.4885 11.2721
lclavicle -1.47635e-013 4.01545e-014
lhumerus -9.03653 -4.34855 87.1183
lradius 105.677
lwrist -19.7192
lhand -21.3789 22.0423
lfingers 7.12502
lthumb 5.00854 -308.037
rfemur -19.007 -10.1671 5.64727
rtibia 60.6506
rfoot -16.3487 -15.2023
rtoes -17.8782
lfemur -7.53015 5.44523 -31.8042
ltibia 37.5732
lfoot -25.9832 -2.7149
ltoes -9.56992
